mtllib cube-critter-t.mtl
o Cube_Cube.001
v -0.500000 -0.500000 0.500000
v -0.500000 -0.500000 -0.500000
v 0.500000 -0.500000 -0.500000
v 0.500000 -0.500000 0.500000
v -0.500000 0.500000 0.500000
v -0.500000 0.500000 -0.500000
v 0.500000 0.500000 -0.500000
v 0.500000 0.500000 0.500000
vt 0.000000 0.000000
vt 1.000000 0.000000
vt 1.000000 1.000000
vt 0.000000 1.000000
vn -1.000000 0.000000 0.000000
vn 0.000000 0.000000 -1.000000
vn 1.000000 -0.000000 0.000000
vn 0.000000 -0.000000 1.000000
vn 0.000000 -1.000000 0.000000
vn 0.000000 1.000000 0.000000
g Cube_Cube.001_Material_foodcube
usemtl Material_foodcube
s off
f 5/1/1 6/2/1 2/3/1
f 6/1/2 7/2/2 3/3/2
f 7/1/3 8/2/3 4/3/3
f 5/2/4 1/3/4 8/1/4
f 1/1/5 2/2/5 3/3/5
f 8/1/6 7/2/6 6/3/6
f 1/4/1 5/1/1 2/3/1
f 2/4/2 6/1/2 3/3/2
f 3/4/3 7/1/3 4/3/3
f 8/1/4 1/3/4 4/4/4
f 4/4/5 1/1/5 3/3/5
f 5/4/6 8/1/6 6/3/6
