# Blender v2.65 (sub 0) OBJ File: 'foodtest1.blend'
# www.blender.org
mtllib cube-food-t.mtl
o Icosphere_Icosphere.001
v 0.000000 -0.556862 0.000000
v 0.402950 -0.249040 0.292757
v -0.153910 -0.249040 0.473695
v -0.498072 -0.249038 0.000000
v -0.153910 -0.249040 -0.473695
v 0.402950 -0.249040 -0.292757
v 0.153910 0.249040 0.473695
v -0.402950 0.249040 0.292757
v -0.402950 0.249040 -0.292757
v 0.153910 0.249040 -0.473695
v 0.498072 0.249038 0.000000
v 0.000000 0.556862 0.000000
v 0.113144 -0.539015 0.082203
v 0.236846 -0.473697 0.172077
v 0.339434 -0.366148 0.246610
v 0.296218 -0.279713 0.379620
v 0.146382 -0.292764 0.450508
v -0.016505 -0.279713 0.481232
v -0.129650 -0.366148 0.399027
v -0.090465 -0.473698 0.278429
v -0.043216 -0.539015 0.133008
v 0.113144 -0.539015 -0.082203
v 0.236846 -0.473697 -0.172077
v 0.339434 -0.366148 -0.246610
v 0.452578 -0.279712 -0.164407
v 0.473694 -0.292763 0.000000
v 0.452578 -0.279712 0.164407
v -0.269506 -0.279713 0.399028
v -0.383227 -0.292763 0.278430
v -0.462781 -0.279711 0.133008
v -0.419563 -0.366145 0.000000
v -0.292759 -0.473696 0.000000
v -0.139854 -0.539014 0.000000
v -0.462781 -0.279711 -0.133008
v -0.383227 -0.292763 -0.278430
v -0.269506 -0.279713 -0.399028
v -0.129650 -0.366148 -0.399027
v -0.090465 -0.473698 -0.278429
v -0.043216 -0.539015 -0.133008
v -0.016505 -0.279713 -0.481232
v 0.146382 -0.292764 -0.450508
v 0.296218 -0.279713 -0.379620
v 0.479290 -0.139856 -0.246611
v 0.529608 0.000000 -0.172078
v 0.532709 0.139856 -0.082203
v 0.532709 0.139856 0.082203
v 0.529608 -0.000000 0.172078
v 0.479290 -0.139856 0.246611
v 0.382653 -0.139857 0.379622
v 0.327316 0.000000 0.450511
v 0.242796 0.139857 0.481234
v 0.086433 0.139857 0.532039
v 0.000000 -0.000000 0.556862
v -0.086433 -0.139857 0.532039
v -0.242796 -0.139857 0.481234
v -0.327316 0.000000 0.450511
v -0.382653 0.139857 0.379622
v -0.479290 0.139856 0.246611
v -0.529608 -0.000000 0.172078
v -0.532709 -0.139856 0.082203
v -0.532709 -0.139856 -0.082203
v -0.529608 0.000000 -0.172078
v -0.479290 0.139856 -0.246611
v -0.382653 0.139857 -0.379622
v -0.327316 -0.000000 -0.450511
v -0.242796 -0.139857 -0.481234
v -0.086433 -0.139857 -0.532039
v 0.000000 0.000000 -0.556862
v 0.086433 0.139857 -0.532039
v 0.242796 0.139857 -0.481234
v 0.327316 -0.000000 -0.450511
v 0.382653 -0.139857 -0.379622
v 0.462781 0.279711 0.133008
v 0.383227 0.292763 0.278430
v 0.269506 0.279713 0.399028
v 0.016505 0.279713 0.481232
v -0.146382 0.292764 0.450508
v -0.296218 0.279713 0.379620
v -0.452578 0.279712 0.164407
v -0.473694 0.292763 0.000000
v -0.452578 0.279712 -0.164407
v -0.296218 0.279713 -0.379620
v -0.146382 0.292764 -0.450508
v 0.016505 0.279713 -0.481232
v 0.269506 0.279713 -0.399028
v 0.383227 0.292763 -0.278430
v 0.462781 0.279711 -0.133008
v 0.419563 0.366145 0.000000
v 0.292759 0.473696 0.000000
v 0.139854 0.539014 0.000000
v 0.043216 0.539015 0.133008
v 0.090465 0.473698 0.278429
v 0.129650 0.366148 0.399027
v -0.113144 0.539015 0.082203
v -0.236846 0.473697 0.172077
v -0.339434 0.366148 0.246610
v -0.113144 0.539015 -0.082203
v -0.236846 0.473697 -0.172077
v -0.339434 0.366148 -0.246610
v 0.043216 0.539015 -0.133008
v 0.090465 0.473698 -0.278429
v 0.129650 0.366148 -0.399027
v 0.029397 -0.402952 0.383225
v 0.076958 -0.498074 0.236845
v 0.201476 -0.402952 0.327312
v 0.373553 -0.402952 -0.090466
v 0.373553 -0.402951 0.090467
v 0.249035 -0.498074 0.000000
v -0.355387 -0.402951 0.146379
v -0.201474 -0.498074 0.146379
v -0.249035 -0.402952 0.292759
v -0.249035 -0.402952 -0.292758
v -0.201474 -0.498074 -0.146378
v -0.355387 -0.402951 -0.146378
v 0.201475 -0.402952 -0.327312
v 0.076957 -0.498074 -0.236845
v 0.029396 -0.402952 -0.383225
v 0.556862 0.000000 0.000000
v 0.527467 -0.153915 0.090467
v 0.527467 -0.153915 -0.090467
v 0.172080 0.000000 0.529608
v 0.076958 -0.153915 0.529607
v 0.249038 -0.153916 0.473694
v -0.450512 0.000000 0.327314
v -0.479906 -0.153915 0.236847
v -0.373554 -0.153915 0.383228
v -0.450512 -0.000000 -0.327314
v -0.373554 -0.153915 -0.383228
v -0.479906 -0.153915 -0.236847
v 0.172080 -0.000000 -0.529608
v 0.249038 -0.153916 -0.473694
v 0.076958 -0.153915 -0.529607
v 0.373555 0.153915 0.383227
v 0.450512 -0.000001 0.327314
v 0.479906 0.153914 0.236847
v -0.249038 0.153915 0.473694
v -0.172080 -0.000000 0.529608
v -0.076958 0.153915 0.529607
v -0.527467 0.153914 -0.090467
v -0.556862 0.000000 0.000000
v -0.527467 0.153915 0.090467
v -0.076958 0.153915 -0.529607
v -0.172080 -0.000000 -0.529608
v -0.249037 0.153915 -0.473694
v 0.479906 0.153915 -0.236846
v 0.450512 0.000000 -0.327314
v 0.373555 0.153915 -0.383227
v 0.201473 0.498074 0.146379
v 0.249034 0.402952 0.292758
v 0.355386 0.402951 0.146379
v -0.076957 0.498074 0.236844
v -0.201475 0.402952 0.327312
v -0.029397 0.402953 0.383224
v -0.249034 0.498074 0.000000
v -0.373553 0.402952 -0.090466
v -0.373553 0.402952 0.090466
v -0.076957 0.498074 -0.236844
v -0.029397 0.402953 -0.383224
v -0.201475 0.402952 -0.327312
v 0.201473 0.498074 -0.146379
v 0.355386 0.402951 -0.146379
v 0.249034 0.402952 -0.292758
vt 0.771479 0.372613
vt 0.770105 0.420343
vt 0.725821 0.386589
vt 0.733039 0.575202
vt 0.770038 0.545103
vt 0.771845 0.597363
vt 0.625260 0.260876
vt 0.623787 0.308610
vt 0.579565 0.274759
vt 0.480019 0.148935
vt 0.478224 0.196674
vt 0.434218 0.162515
vt 0.352480 0.039636
vt 0.345557 0.086906
vt 0.305481 0.048208
vt 0.729258 0.618576
vt 0.586338 0.463393
vt 0.624691 0.486002
vt 0.582208 0.506572
vt 0.439917 0.351316
vt 0.478238 0.373988
vt 0.435716 0.394504
vt 0.293842 0.237910
vt 0.331972 0.261111
vt 0.288814 0.281310
vt 0.155776 0.104141
vt 0.189827 0.135058
vt 0.137780 0.148404
vt 0.692470 0.590723
vt 0.545757 0.478706
vt 0.399260 0.366551
vt 0.252040 0.251968
vt 0.884755 0.683976
vt 0.888627 0.731546
vt 0.844345 0.703428
vt 0.567665 0.639579
vt 0.599475 0.670771
vt 0.548898 0.683424
vt 0.421223 0.527537
vt 0.453115 0.558604
vt 0.402624 0.571463
vt 0.274465 0.415684
vt 0.306473 0.446679
vt 0.255979 0.459675
vt 0.122683 0.306810
vt 0.156678 0.336308
vt 0.106336 0.351680
vt 0.713715 0.752882
vt 0.744185 0.786237
vt 0.692157 0.795433
vt 0.623824 0.433908
vt 0.673263 0.406876
vt 0.668072 0.462763
vt 0.719925 0.440251
vt 0.663857 0.513804
vt 0.711961 0.496220
vt 0.701045 0.544224
vt 0.764474 0.476398
vt 0.751516 0.531234
vt 0.850772 0.654505
vt 0.901080 0.639128
vt 0.812007 0.624711
vt 0.860101 0.605492
vt 0.815016 0.573060
vt 0.912109 0.583861
vt 0.866428 0.549052
vt 0.916056 0.527655
vt 0.818831 0.516917
vt 0.870814 0.495187
vt 0.916056 0.479900
vt 0.477459 0.321888
vt 0.526957 0.294943
vt 0.521659 0.350824
vt 0.573559 0.328416
vt 0.517352 0.401845
vt 0.565477 0.384365
vt 0.554456 0.432322
vt 0.618036 0.364662
vt 0.604948 0.419476
vt 0.331723 0.208886
vt 0.381454 0.182336
vt 0.375719 0.238233
vt 0.427840 0.216157
vt 0.371045 0.289362
vt 0.419390 0.272115
vt 0.408109 0.320100
vt 0.472108 0.252705
vt 0.458710 0.307461
vt 0.198102 0.081971
vt 0.250831 0.062014
vt 0.238160 0.117396
vt 0.293223 0.101005
vt 0.227359 0.169600
vt 0.278884 0.156490
vt 0.263363 0.204526
vt 0.333672 0.142004
vt 0.315426 0.195339
vt 0.718726 0.709505
vt 0.755488 0.738819
vt 0.724212 0.663995
vt 0.761256 0.693127
vt 0.767063 0.644019
vt 0.799851 0.722105
vt 0.807272 0.673829
vt 0.571853 0.596397
vt 0.608307 0.624335
vt 0.577041 0.551482
vt 0.613350 0.579962
vt 0.619315 0.532005
vt 0.650390 0.607581
vt 0.658073 0.561593
vt 0.425350 0.484347
vt 0.461808 0.512217
vt 0.430520 0.439428
vt 0.466814 0.467897
vt 0.472802 0.419977
vt 0.503783 0.495460
vt 0.511493 0.449580
vt 0.278254 0.372286
vt 0.315056 0.400160
vt 0.283314 0.326843
vt 0.319996 0.355601
vt 0.326133 0.307336
vt 0.357157 0.383302
vt 0.364954 0.337258
vt 0.118820 0.259211
vt 0.163121 0.287357
vt 0.123731 0.203023
vt 0.166995 0.238279
vt 0.176723 0.184225
vt 0.207646 0.268680
vt 0.217119 0.219842
vt 0.642607 0.653606
vt 0.687541 0.635261
vt 0.636534 0.701483
vt 0.681419 0.683504
vt 0.675597 0.729708
vt 0.496076 0.541340
vt 0.540751 0.523020
vt 0.490224 0.589074
vt 0.534768 0.570936
vt 0.529342 0.616920
vt 0.349465 0.429306
vt 0.394206 0.410937
vt 0.343676 0.477113
vt 0.388234 0.458907
vt 0.382856 0.504925
vt 0.200208 0.316983
vt 0.246255 0.297686
vt 0.195460 0.366128
vt 0.240434 0.346820
vt 0.235639 0.393503
vt 0.790397 0.770917
vt 0.840486 0.752477
vt 0.780177 0.821130
vt 0.830778 0.806500
vt 0.817696 0.855641
vt 0.883733 0.787701
vt 0.869707 0.842289
vt 0.851735 0.886530
vt 0.529436 0.794169
vt 0.573435 0.828295
vt 0.527660 0.841886
vt 0.535527 0.738162
vt 0.579790 0.774676
vt 0.588214 0.718740
vt 0.626167 0.808463
vt 0.631879 0.752590
vt 0.675864 0.781905
vt 0.383815 0.682335
vt 0.428045 0.716174
vt 0.382355 0.730070
vt 0.389550 0.626282
vt 0.434037 0.662516
vt 0.442104 0.606565
vt 0.480646 0.695975
vt 0.485930 0.640094
vt 0.530135 0.669017
vt 0.237384 0.570617
vt 0.281689 0.604383
vt 0.236011 0.618367
vt 0.243016 0.514536
vt 0.287585 0.550697
vt 0.295552 0.494705
vt 0.334268 0.584084
vt 0.339460 0.528174
vt 0.383726 0.557037
vt 0.091323 0.463218
vt 0.136585 0.495717
vt 0.091312 0.511002
vt 0.095287 0.406978
vt 0.140987 0.441820
vt 0.147331 0.385347
vt 0.188606 0.473986
vt 0.192437 0.417810
vt 0.237436 0.445795
vt 0.662077 0.903808
vt 0.702140 0.942470
vt 0.655172 0.951051
vt 0.673938 0.848741
vt 0.714374 0.889703
vt 0.728688 0.834248
vt 0.756751 0.928657
vt 0.769398 0.873306
vt 0.809441 0.908698
vn 0.000000 -1.000000 0.000000
vn 0.210944 -0.965392 0.153264
vn -0.080569 -0.965392 0.247963
vn 0.723594 -0.447218 0.525712
vn 0.604205 -0.664968 0.438978
vn 0.815180 -0.503800 0.285714
vn -0.260750 -0.965392 0.000000
vn -0.080569 -0.965392 -0.247963
vn 0.210944 -0.965392 -0.153264
vn 0.864986 -0.243049 0.438978
vn -0.276376 -0.447218 0.850642
vn -0.019837 -0.503800 0.863552
vn -0.150212 -0.243049 0.958281
vn -0.894406 -0.447188 0.000000
vn -0.827448 -0.503800 0.247963
vn -0.957823 -0.243049 0.153264
vn -0.276376 -0.447218 -0.850642
vn -0.491531 -0.503800 -0.710288
vn -0.441725 -0.243049 -0.863582
vn 0.723594 -0.447218 -0.525712
vn 0.523637 -0.503800 -0.686972
vn 0.684805 -0.243049 -0.686972
vn 0.684805 -0.243049 0.686972
vn -0.441725 -0.243049 0.863582
vn -0.957823 -0.243049 -0.153264
vn -0.150212 -0.243049 -0.958281
vn 0.864986 -0.243049 -0.438978
vn 0.276376 0.447218 0.850642
vn 0.491531 0.503800 0.710288
vn 0.230781 0.664968 0.710288
vn -0.723594 0.447218 0.525712
vn -0.523637 0.503800 0.686972
vn -0.604205 0.664968 0.438978
vn -0.723594 0.447218 -0.525712
vn -0.815180 0.503800 -0.285714
vn -0.604205 0.664968 -0.438978
vn 0.276376 0.447218 -0.850642
vn 0.019837 0.503800 -0.863552
vn 0.230781 0.664968 -0.710288
vn 0.894406 0.447188 0.000000
vn 0.827448 0.503800 -0.247963
vn 0.746849 0.664968 0.000000
vn -0.230781 -0.664968 0.710288
vn -0.162450 -0.850642 0.499985
vn 0.059206 -0.727531 0.683493
vn 0.140629 -0.890408 0.432844
vn 0.262856 -0.525712 0.808985
vn 0.353832 -0.727531 0.587756
vn 0.523637 -0.503800 0.686972
vn 0.425306 -0.850642 0.309000
vn 0.815180 -0.503800 -0.285714
vn 0.604205 -0.664968 -0.438978
vn 0.850642 -0.525712 0.000000
vn 0.668325 -0.727531 -0.154881
vn 0.668325 -0.727531 0.154881
vn 0.425306 -0.850642 -0.309000
vn 0.455123 -0.890408 0.000000
vn -0.746849 -0.664968 0.000000
vn -0.525712 -0.850642 0.000000
vn -0.631733 -0.727531 0.267495
vn -0.368206 -0.890408 0.267495
vn -0.688162 -0.525712 0.499985
vn -0.449629 -0.727531 0.518143
vn -0.491531 -0.503800 0.710288
vn -0.230781 -0.664968 -0.710288
vn -0.162450 -0.850642 -0.499985
vn -0.449629 -0.727531 -0.518143
vn -0.368206 -0.890408 -0.267495
vn -0.688162 -0.525712 -0.499985
vn -0.631733 -0.727531 -0.267495
vn -0.827448 -0.503800 -0.247963
vn 0.353832 -0.727531 -0.587756
vn 0.140629 -0.890408 -0.432844
vn 0.262856 -0.525712 -0.808985
vn 0.059206 -0.727531 -0.683493
vn -0.019837 -0.503800 -0.863552
vn 0.957823 0.243049 0.153264
vn 0.957823 0.243049 -0.153264
vn 0.951048 0.000000 0.309000
vn 0.999939 -0.008850 0.000000
vn 0.949614 -0.272408 0.154881
vn 0.951048 0.000000 -0.309000
vn 0.949614 -0.272408 -0.154881
vn 0.150212 0.243049 0.958281
vn 0.441725 0.243049 0.863582
vn 0.000000 0.000000 1.000000
vn 0.309000 -0.008850 0.951018
vn 0.146123 -0.272408 0.950987
vn 0.587756 0.000000 0.809015
vn 0.440748 -0.272408 0.855251
vn -0.864986 0.243049 0.438978
vn -0.684805 0.243049 0.686972
vn -0.951048 0.000000 0.309000
vn -0.808985 -0.008850 0.587756
vn -0.859310 -0.272408 0.432844
vn -0.587756 0.000000 0.809015
vn -0.677206 -0.272408 0.683493
vn -0.684805 0.243049 -0.686972
vn -0.864986 0.243049 -0.438978
vn -0.587756 0.000000 -0.809015
vn -0.808985 -0.008850 -0.587756
vn -0.677206 -0.272408 -0.683493
vn -0.951048 0.000000 -0.309000
vn -0.859310 -0.272408 -0.432844
vn 0.441725 0.243049 -0.863582
vn 0.150212 0.243049 -0.958281
vn 0.587756 0.000000 -0.809015
vn 0.309000 -0.008850 -0.951018
vn 0.440748 -0.272408 -0.855251
vn 0.000000 0.000000 -1.000000
vn 0.146123 -0.272408 -0.950987
vn 0.677206 0.272408 0.683493
vn 0.808985 0.008850 0.587756
vn 0.688162 0.525712 0.499985
vn 0.859310 0.272408 0.432844
vn 0.827448 0.503800 0.247963
vn -0.440748 0.272408 0.855251
vn -0.309000 0.008850 0.951018
vn -0.262856 0.525712 0.808985
vn -0.146123 0.272408 0.950987
vn 0.019837 0.503800 0.863552
vn -0.949614 0.272408 -0.154881
vn -0.999939 0.008850 0.000000
vn -0.850642 0.525712 0.000000
vn -0.949614 0.272408 0.154881
vn -0.815180 0.503800 0.285714
vn -0.146123 0.272408 -0.951018
vn -0.309000 0.008850 -0.951018
vn -0.262856 0.525712 -0.808985
vn -0.440748 0.272408 -0.855251
vn -0.523637 0.503800 -0.686972
vn 0.859310 0.272408 -0.432844
vn 0.808985 0.008850 -0.587756
vn 0.688162 0.525712 -0.499985
vn 0.677206 0.272408 -0.683493
vn 0.491531 0.503800 -0.710288
vn 0.080569 0.965392 0.247963
vn 0.260750 0.965392 0.000000
vn 0.000000 1.000000 0.000000
vn 0.162450 0.850642 0.499985
vn 0.368206 0.890408 0.267495
vn 0.449629 0.727531 0.518143
vn 0.525712 0.850642 0.000000
vn 0.631733 0.727531 0.267495
vn -0.210944 0.965392 0.153264
vn -0.425306 0.850642 0.309000
vn -0.140629 0.890408 0.432844
vn -0.353832 0.727531 0.587725
vn -0.059206 0.727531 0.683493
vn -0.210944 0.965392 -0.153264
vn -0.425306 0.850642 -0.309000
vn -0.455123 0.890408 0.000000
vn -0.668325 0.727531 -0.154881
vn -0.668325 0.727531 0.154881
vn 0.080569 0.965392 -0.247963
vn 0.162450 0.850642 -0.499985
vn -0.140629 0.890408 -0.432844
vn -0.059206 0.727531 -0.683493
vn -0.353832 0.727531 -0.587725
vn 0.368206 0.890408 -0.267495
vn 0.631733 0.727531 -0.267495
vn 0.449629 0.727531 -0.518143
g Icosphere_Icosphere.001_Material.001
usemtl Material.001
s 1
f 1/1/1 13/2/2 21/3/3
f 2/4/4 15/5/5 27/6/6
f 1/7/1 21/8/3 33/9/7
f 1/10/1 33/11/7 39/12/8
f 1/13/1 39/14/8 22/15/9
f 2/4/4 27/6/6 48/16/10
f 3/17/11 18/18/12 54/19/13
f 4/20/14 30/21/15 60/22/16
f 5/23/17 36/24/18 66/25/19
f 6/26/20 42/27/21 72/28/22
f 2/4/4 48/16/10 49/29/23
f 3/17/11 54/19/13 55/30/24
f 4/20/14 60/22/16 61/31/25
f 5/23/17 66/25/19 67/32/26
f 6/33/20 72/34/22 43/35/27
f 7/36/28 75/37/29 93/38/30
f 8/39/31 78/40/32 96/41/33
f 9/42/34 81/43/35 99/44/36
f 10/45/37 84/46/38 102/47/39
f 11/48/40 87/49/41 88/50/42
f 19/51/43 18/18/12 3/17/11
f 20/52/44 103/53/45 19/51/43
f 21/3/3 104/54/46 20/52/44
f 19/51/43 103/53/45 18/18/12
f 103/53/45 17/55/47 18/18/12
f 20/52/44 104/54/46 103/53/45
f 104/54/46 105/56/48 103/53/45
f 103/53/45 105/56/48 17/55/47
f 105/56/48 16/57/49 17/55/47
f 21/3/3 13/2/2 104/54/46
f 13/2/2 14/58/50 104/54/46
f 104/54/46 14/58/50 105/56/48
f 14/58/50 15/59/5 105/56/48
f 105/56/48 15/59/5 16/57/49
f 15/59/5 2/4/4 16/57/49
f 25/60/51 24/61/52 6/33/20
f 26/62/53 106/63/54 25/60/51
f 27/6/6 107/64/55 26/62/53
f 25/60/51 106/63/54 24/61/52
f 106/63/54 23/65/56 24/61/52
f 26/62/53 107/64/55 106/63/54
f 107/64/55 108/66/57 106/63/54
f 106/63/54 108/66/57 23/65/56
f 108/66/57 22/67/9 23/65/56
f 27/6/6 15/5/5 107/64/55
f 15/5/5 14/68/50 107/64/55
f 107/64/55 14/68/50 108/66/57
f 14/68/50 13/69/2 108/66/57
f 108/66/57 13/69/2 22/67/9
f 13/69/2 1/70/1 22/67/9
f 31/71/58 30/21/15 4/20/14
f 32/72/59 109/73/60 31/71/58
f 33/9/7 110/74/61 32/72/59
f 31/71/58 109/73/60 30/21/15
f 109/73/60 29/75/62 30/21/15
f 32/72/59 110/74/61 109/73/60
f 110/74/61 111/76/63 109/73/60
f 109/73/60 111/76/63 29/75/62
f 111/76/63 28/77/64 29/75/62
f 33/9/7 21/8/3 110/74/61
f 21/8/3 20/78/44 110/74/61
f 110/74/61 20/78/44 111/76/63
f 20/78/44 19/79/43 111/76/63
f 111/76/63 19/79/43 28/77/64
f 19/79/43 3/17/11 28/77/64
f 37/80/65 36/24/18 5/23/17
f 38/81/66 112/82/67 37/80/65
f 39/12/8 113/83/68 38/81/66
f 37/80/65 112/82/67 36/24/18
f 112/82/67 35/84/69 36/24/18
f 38/81/66 113/83/68 112/82/67
f 113/83/68 114/85/70 112/82/67
f 112/82/67 114/85/70 35/84/69
f 114/85/70 34/86/71 35/84/69
f 39/12/8 33/11/7 113/83/68
f 33/11/7 32/87/59 113/83/68
f 113/83/68 32/87/59 114/85/70
f 32/87/59 31/88/58 114/85/70
f 114/85/70 31/88/58 34/86/71
f 31/88/58 4/20/14 34/86/71
f 24/89/52 42/27/21 6/26/20
f 23/90/56 115/91/72 24/89/52
f 22/15/9 116/92/73 23/90/56
f 24/89/52 115/91/72 42/27/21
f 115/91/72 41/93/74 42/27/21
f 23/90/56 116/92/73 115/91/72
f 116/92/73 117/94/75 115/91/72
f 115/91/72 117/94/75 41/93/74
f 117/94/75 40/95/76 41/93/74
f 22/15/9 39/14/8 116/92/73
f 39/14/8 38/96/66 116/92/73
f 116/92/73 38/96/66 117/94/75
f 38/96/66 37/97/65 117/94/75
f 117/94/75 37/97/65 40/95/76
f 37/97/65 5/23/17 40/95/76
f 46/98/77 45/99/78 11/48/40
f 47/100/79 118/101/80 46/98/77
f 48/16/10 119/102/81 47/100/79
f 46/98/77 118/101/80 45/99/78
f 118/101/80 44/103/82 45/99/78
f 47/100/79 119/102/81 118/101/80
f 119/102/81 120/104/83 118/101/80
f 118/101/80 120/104/83 44/103/82
f 120/104/83 43/35/27 44/103/82
f 48/16/10 27/6/6 119/102/81
f 27/6/6 26/62/53 119/102/81
f 119/102/81 26/62/53 120/104/83
f 26/62/53 25/60/51 120/104/83
f 120/104/83 25/60/51 43/35/27
f 25/60/51 6/33/20 43/35/27
f 52/105/84 51/106/85 7/36/28
f 53/107/86 121/108/87 52/105/84
f 54/19/13 122/109/88 53/107/86
f 52/105/84 121/108/87 51/106/85
f 121/108/87 50/110/89 51/106/85
f 53/107/86 122/109/88 121/108/87
f 122/109/88 123/111/90 121/108/87
f 121/108/87 123/111/90 50/110/89
f 123/111/90 49/29/23 50/110/89
f 54/19/13 18/18/12 122/109/88
f 18/18/12 17/55/47 122/109/88
f 122/109/88 17/55/47 123/111/90
f 17/55/47 16/57/49 123/111/90
f 123/111/90 16/57/49 49/29/23
f 16/57/49 2/4/4 49/29/23
f 58/112/91 57/113/92 8/39/31
f 59/114/93 124/115/94 58/112/91
f 60/22/16 125/116/95 59/114/93
f 58/112/91 124/115/94 57/113/92
f 124/115/94 56/117/96 57/113/92
f 59/114/93 125/116/95 124/115/94
f 125/116/95 126/118/97 124/115/94
f 124/115/94 126/118/97 56/117/96
f 126/118/97 55/30/24 56/117/96
f 60/22/16 30/21/15 125/116/95
f 30/21/15 29/75/62 125/116/95
f 125/116/95 29/75/62 126/118/97
f 29/75/62 28/77/64 126/118/97
f 126/118/97 28/77/64 55/30/24
f 28/77/64 3/17/11 55/30/24
f 64/119/98 63/120/99 9/42/34
f 65/121/100 127/122/101 64/119/98
f 66/25/19 128/123/102 65/121/100
f 64/119/98 127/122/101 63/120/99
f 127/122/101 62/124/103 63/120/99
f 65/121/100 128/123/102 127/122/101
f 128/123/102 129/125/104 127/122/101
f 127/122/101 129/125/104 62/124/103
f 129/125/104 61/31/25 62/124/103
f 66/25/19 36/24/18 128/123/102
f 36/24/18 35/84/69 128/123/102
f 128/123/102 35/84/69 129/125/104
f 35/84/69 34/86/71 129/125/104
f 129/125/104 34/86/71 61/31/25
f 34/86/71 4/20/14 61/31/25
f 70/126/105 69/127/106 10/45/37
f 71/128/107 130/129/108 70/126/105
f 72/28/22 131/130/109 71/128/107
f 70/126/105 130/129/108 69/127/106
f 130/129/108 68/131/110 69/127/106
f 71/128/107 131/130/109 130/129/108
f 131/130/109 132/132/111 130/129/108
f 130/129/108 132/132/111 68/131/110
f 132/132/111 67/32/26 68/131/110
f 72/28/22 42/27/21 131/130/109
f 42/27/21 41/93/74 131/130/109
f 131/130/109 41/93/74 132/132/111
f 41/93/74 40/95/76 132/132/111
f 132/132/111 40/95/76 67/32/26
f 40/95/76 5/23/17 67/32/26
f 51/106/85 75/37/29 7/36/28
f 50/110/89 133/133/112 51/106/85
f 49/29/23 134/134/113 50/110/89
f 51/106/85 133/133/112 75/37/29
f 133/133/112 74/135/114 75/37/29
f 50/110/89 134/134/113 133/133/112
f 134/134/113 135/136/115 133/133/112
f 133/133/112 135/136/115 74/135/114
f 135/136/115 73/137/116 74/135/114
f 49/29/23 48/16/10 134/134/113
f 48/16/10 47/100/79 134/134/113
f 134/134/113 47/100/79 135/136/115
f 47/100/79 46/98/77 135/136/115
f 135/136/115 46/98/77 73/137/116
f 46/98/77 11/48/40 73/137/116
f 57/113/92 78/40/32 8/39/31
f 56/117/96 136/138/117 57/113/92
f 55/30/24 137/139/118 56/117/96
f 57/113/92 136/138/117 78/40/32
f 136/138/117 77/140/119 78/40/32
f 56/117/96 137/139/118 136/138/117
f 137/139/118 138/141/120 136/138/117
f 136/138/117 138/141/120 77/140/119
f 138/141/120 76/142/121 77/140/119
f 55/30/24 54/19/13 137/139/118
f 54/19/13 53/107/86 137/139/118
f 137/139/118 53/107/86 138/141/120
f 53/107/86 52/105/84 138/141/120
f 138/141/120 52/105/84 76/142/121
f 52/105/84 7/36/28 76/142/121
f 63/120/99 81/43/35 9/42/34
f 62/124/103 139/143/122 63/120/99
f 61/31/25 140/144/123 62/124/103
f 63/120/99 139/143/122 81/43/35
f 139/143/122 80/145/124 81/43/35
f 62/124/103 140/144/123 139/143/122
f 140/144/123 141/146/125 139/143/122
f 139/143/122 141/146/125 80/145/124
f 141/146/125 79/147/126 80/145/124
f 61/31/25 60/22/16 140/144/123
f 60/22/16 59/114/93 140/144/123
f 140/144/123 59/114/93 141/146/125
f 59/114/93 58/112/91 141/146/125
f 141/146/125 58/112/91 79/147/126
f 58/112/91 8/39/31 79/147/126
f 69/127/106 84/46/38 10/45/37
f 68/131/110 142/148/127 69/127/106
f 67/32/26 143/149/128 68/131/110
f 69/127/106 142/148/127 84/46/38
f 142/148/127 83/150/129 84/46/38
f 68/131/110 143/149/128 142/148/127
f 143/149/128 144/151/130 142/148/127
f 142/148/127 144/151/130 83/150/129
f 144/151/130 82/152/131 83/150/129
f 67/32/26 66/25/19 143/149/128
f 66/25/19 65/121/100 143/149/128
f 143/149/128 65/121/100 144/151/130
f 65/121/100 64/119/98 144/151/130
f 144/151/130 64/119/98 82/152/131
f 64/119/98 9/42/34 82/152/131
f 45/99/78 87/49/41 11/48/40
f 44/103/82 145/153/132 45/99/78
f 43/35/27 146/154/133 44/103/82
f 45/99/78 145/153/132 87/49/41
f 145/153/132 86/155/134 87/49/41
f 44/103/82 146/154/133 145/153/132
f 146/154/133 147/156/135 145/153/132
f 145/153/132 147/156/135 86/155/134
f 147/156/135 85/157/136 86/155/134
f 43/35/27 72/34/22 146/154/133
f 72/34/22 71/158/107 146/154/133
f 146/154/133 71/158/107 147/156/135
f 71/158/107 70/159/105 147/156/135
f 147/156/135 70/159/105 85/157/136
f 70/159/105 10/160/37 85/157/136
f 91/161/137 90/162/138 12/163/139
f 92/164/140 148/165/141 91/161/137
f 93/38/30 149/166/142 92/164/140
f 91/161/137 148/165/141 90/162/138
f 148/165/141 89/167/143 90/162/138
f 92/164/140 149/166/142 148/165/141
f 149/166/142 150/168/144 148/165/141
f 148/165/141 150/168/144 89/167/143
f 150/168/144 88/169/42 89/167/143
f 93/38/30 75/37/29 149/166/142
f 75/37/29 74/135/114 149/166/142
f 149/166/142 74/135/114 150/168/144
f 74/135/114 73/137/116 150/168/144
f 150/168/144 73/137/116 88/169/42
f 73/137/116 11/48/40 88/169/42
f 94/170/145 91/171/137 12/172/139
f 95/173/146 151/174/147 94/170/145
f 96/41/33 152/175/148 95/173/146
f 94/170/145 151/174/147 91/171/137
f 151/174/147 92/176/140 91/171/137
f 95/173/146 152/175/148 151/174/147
f 152/175/148 153/177/149 151/174/147
f 151/174/147 153/177/149 92/176/140
f 153/177/149 93/178/30 92/176/140
f 96/41/33 78/40/32 152/175/148
f 78/40/32 77/140/119 152/175/148
f 152/175/148 77/140/119 153/177/149
f 77/140/119 76/142/121 153/177/149
f 153/177/149 76/142/121 93/178/30
f 76/142/121 7/36/28 93/178/30
f 97/179/150 94/180/145 12/181/139
f 98/182/151 154/183/152 97/179/150
f 99/44/36 155/184/153 98/182/151
f 97/179/150 154/183/152 94/180/145
f 154/183/152 95/185/146 94/180/145
f 98/182/151 155/184/153 154/183/152
f 155/184/153 156/186/154 154/183/152
f 154/183/152 156/186/154 95/185/146
f 156/186/154 96/187/33 95/185/146
f 99/44/36 81/43/35 155/184/153
f 81/43/35 80/145/124 155/184/153
f 155/184/153 80/145/124 156/186/154
f 80/145/124 79/147/126 156/186/154
f 156/186/154 79/147/126 96/187/33
f 79/147/126 8/39/31 96/187/33
f 100/188/155 97/189/150 12/190/139
f 101/191/156 157/192/157 100/188/155
f 102/47/39 158/193/158 101/191/156
f 100/188/155 157/192/157 97/189/150
f 157/192/157 98/194/151 97/189/150
f 101/191/156 158/193/158 157/192/157
f 158/193/158 159/195/159 157/192/157
f 157/192/157 159/195/159 98/194/151
f 159/195/159 99/196/36 98/194/151
f 102/47/39 84/46/38 158/193/158
f 84/46/38 83/150/129 158/193/158
f 158/193/158 83/150/129 159/195/159
f 83/150/129 82/152/131 159/195/159
f 159/195/159 82/152/131 99/196/36
f 82/152/131 9/42/34 99/196/36
f 90/197/138 100/198/155 12/199/139
f 89/200/143 160/201/160 90/197/138
f 88/50/42 161/202/161 89/200/143
f 90/197/138 160/201/160 100/198/155
f 160/201/160 101/203/156 100/198/155
f 89/200/143 161/202/161 160/201/160
f 161/202/161 162/204/162 160/201/160
f 160/201/160 162/204/162 101/203/156
f 162/204/162 102/205/39 101/203/156
f 88/50/42 87/49/41 161/202/161
f 87/49/41 86/155/134 161/202/161
f 161/202/161 86/155/134 162/204/162
f 86/155/134 85/157/136 162/204/162
f 162/204/162 85/157/136 102/205/39
f 85/157/136 10/160/37 102/205/39
